<svg width="128" height="128" viewBox="0 0 128 128" fill="none" xmlns="http://www.w3.org/2000/svg">
<path d="M128 0H0V128H128V0Z" fill="#E42E87"/>
<path d="M32.7111 21.2148C35.6741 21.2148 38.0444 18.9037 38.0444 16C38.0444 13.0963 35.6741 10.7852 32.7111 10.7852C29.7481 10.7852 27.3778 13.0963 27.3778 16C27.3778 18.9037 29.7481 21.2148 32.7111 21.2148Z" fill="white"/>
<path d="M95.6444 21.3333C98.6074 21.3333 100.978 18.963 100.978 16C100.978 13.037 98.6074 10.6667 95.6444 10.6667C92.6815 10.6667 90.3111 13.037 90.3111 16C90.3111 18.963 92.7407 21.3333 95.6444 21.3333Z" fill="white"/>
<path d="M32.5926 16.3556C32.5926 33.7185 46.6963 47.8222 64.0593 47.8222C81.4222 47.8222 95.5259 33.7185 95.5259 16.3556" stroke="white" stroke-width="6"/>
<path d="M108.326 99.0222V96.8296V81.0074H105.896V77.9259H111.644V95.9407H114.074V99.0222H108.326V99.0222ZM101.096 99.0222L101.037 97.7185V86.8148H98.6667V83.7333H104.356V95.8815H106.667V98.963H101.096V99.0222ZM103.763 81.1259C103.348 81.5407 102.815 81.7185 102.341 81.7185C101.867 81.7185 101.333 81.5407 100.919 81.1259C100.504 80.7111 100.326 80.1778 100.326 79.7037C100.326 79.1111 100.504 78.637 100.919 78.2222C101.333 77.8074 101.867 77.6296 102.341 77.6296C102.815 77.6296 103.348 77.8074 103.763 78.2222C104.178 78.637 104.356 79.1704 104.356 79.6444C104.356 80.237 104.178 80.7111 103.763 81.1259ZM93.8074 92.9778C93.3926 92.7407 93.037 92.6222 92.6222 92.4444C92.0889 92.2667 91.5556 92.1481 90.963 92.1481C90.4296 92.1481 90.0148 92.2074 89.6593 92.3259C89.3037 92.4444 89.0074 92.6222 88.8296 92.8C88.3556 93.2148 88.1185 93.7481 88.1185 94.3407C88.1185 94.8148 88.2963 95.2296 88.6519 95.6444C88.8296 95.8222 89.0074 95.9407 89.3037 96.0593C89.5407 96.1778 89.837 96.1778 90.2519 96.1778C90.9037 96.1778 91.5556 96 92.2667 95.6444C92.8593 95.3481 93.3926 94.9333 93.8667 94.5185V92.9778H93.8074ZM93.8074 99.0222V98.0148C93.2148 98.3704 92.563 98.6667 91.9111 98.9037C91.2593 99.1407 90.5482 99.2593 89.837 99.2593C88.3556 99.2593 87.1704 98.7852 86.2222 97.837C85.2741 96.8889 84.8 95.763 84.8 94.4C84.8 92.9185 85.3926 91.6741 86.5185 90.7259C87.0519 90.2519 87.7037 89.8963 88.4148 89.6593C89.1259 89.4222 89.8963 89.3037 90.7852 89.3037C91.437 89.3037 92.1482 89.4222 92.9185 89.6C93.0963 89.6593 93.2148 89.6593 93.3926 89.7185C93.5704 89.7778 93.7482 89.837 93.9259 89.8963V88.1185C93.9259 87.763 93.8667 87.4667 93.7482 87.2296C93.6296 86.9926 93.5111 86.8741 93.3333 86.7556C93.0963 86.5778 92.8 86.4593 92.5037 86.4C92.1482 86.3407 91.7333 86.2815 91.2593 86.2815C91.0222 86.2815 90.7259 86.3407 90.4296 86.4C90.1333 86.4593 89.7778 86.5778 89.4222 86.637C89.0667 86.7556 88.7704 86.8741 88.4741 86.9333C88.1778 87.0518 87.9407 87.1111 87.7037 87.2296L86.6963 84.6815C87.3482 84.4444 87.9407 84.2074 88.4148 84.0296C88.8889 83.8519 89.363 83.7333 89.8963 83.6148C90.4296 83.4963 90.9037 83.437 91.3185 83.437C92.2074 83.437 92.9778 83.5556 93.6889 83.7333C94.4 83.9111 95.0519 84.2074 95.5852 84.563C96.1778 84.9778 96.5926 85.5111 96.8296 86.1037C97.0667 86.6963 97.2445 87.4074 97.2445 88.1778V96H99.4963V99.0815H93.8074V99.0222ZM83.6741 86.8148C82.7852 86.8148 82.0148 86.9333 81.4222 87.1111C80.8296 87.3481 80.3556 87.5852 80 87.8815C79.6444 88.1778 79.4074 88.5333 79.2296 88.9482C79.0519 89.363 78.9333 89.9556 78.9333 90.7852V95.8815H81.7185V98.963H75.6741V96.7704V86.8148H73.1259V83.7333H78.9926V85.3333C79.0519 85.2741 79.2296 85.2148 79.5259 84.9778C79.8222 84.7407 80.0593 84.6222 80.2963 84.5037C80.9481 84.2074 81.4815 83.9704 82.0148 83.8519C82.5481 83.7333 83.1407 83.6741 83.7926 83.7333H85.2148V86.6963H83.6741V86.8148ZM68.9778 99.3185C68.4444 99.3185 67.9704 99.2593 67.5556 99.0815C67.1407 98.963 66.7259 98.7259 66.4296 98.3704C66.1333 98.0741 65.8963 97.6593 65.7778 97.2444C65.6593 96.8296 65.6 96.3556 65.6 95.8815V86.8148H63.2296V83.7333H65.6V80.7704L68.9185 80.7111V83.7926H71.763V86.8741H68.9185V95.6444C68.9185 95.9407 68.9185 96.1185 68.9778 96.237H69.0963L71.7037 95.8222V98.963L68.9778 99.3185ZM59.2593 86.8741L52.3852 105.067H49.1852L51.7926 97.7778L47.3481 86.8741H44.8V83.7926H49.5407L50.2519 85.6296L53.4519 93.5111L55.9407 86.8741H54.2222V83.7926H61.6296V86.8741H59.2593ZM39.7037 92.9778C39.2889 92.7407 38.9333 92.6222 38.5185 92.4444C37.9852 92.2667 37.4519 92.1481 36.8593 92.1481C36.3259 92.1481 35.9111 92.2074 35.5556 92.3259C35.2 92.4444 34.9037 92.6222 34.7259 92.8C34.2519 93.2148 34.0148 93.7481 34.0148 94.3407C34.0148 94.8148 34.1926 95.2296 34.5482 95.6444C34.7259 95.8222 34.9037 95.9407 35.2 96.0593C35.437 96.1778 35.7333 96.1778 36.1481 96.1778C36.8 96.1778 37.4519 96 38.163 95.6444C38.7556 95.3481 39.2889 94.9333 39.763 94.5185V92.9778H39.7037ZM39.7037 99.0222V98.0148C39.1111 98.3704 38.4593 98.6667 37.8074 98.9037C37.1556 99.1407 36.4444 99.2593 35.7333 99.2593C34.2519 99.2593 33.0667 98.7852 32.1185 97.837C31.1704 96.8889 30.6963 95.763 30.6963 94.4C30.6963 92.9185 31.2889 91.6741 32.4148 90.7259C32.9481 90.2519 33.6 89.8963 34.3111 89.6593C35.0222 89.4222 35.7926 89.3037 36.6815 89.3037C37.3333 89.3037 38.0444 89.4222 38.8148 89.6C38.9926 89.6593 39.1111 89.6593 39.2889 89.7185C39.4667 89.7778 39.6444 89.837 39.8222 89.8963V88.1185C39.8222 87.763 39.763 87.4667 39.6444 87.2296C39.5259 86.9926 39.4074 86.8741 39.2296 86.7556C38.9926 86.5778 38.6963 86.4593 38.4 86.4C38.0444 86.3407 37.6296 86.2815 37.1556 86.2815C36.9185 86.2815 36.6222 86.3407 36.3259 86.4C36.0296 86.4593 35.6741 86.5778 35.3185 86.637C34.963 86.7556 34.6667 86.8741 34.3704 86.9333C34.0741 87.0518 33.837 87.1111 33.6 87.2296L32.5926 84.6815C33.2444 84.4444 33.837 84.2074 34.3111 84.0296C34.7852 83.8519 35.2593 83.7333 35.7926 83.6148C36.3259 83.4963 36.8 83.437 37.2148 83.437C38.1037 83.437 38.8741 83.5556 39.5852 83.7333C40.2963 83.9111 40.9481 84.2074 41.4815 84.563C42.0741 84.9778 42.4889 85.5111 42.7259 86.1037C42.963 86.6963 43.1407 87.4074 43.1407 88.1778V96H45.3926V99.0815H39.7037V99.0222ZM27.0222 82.9037C26.8444 82.4296 26.6074 82.1333 26.3704 81.837C26.0741 81.6 25.6593 81.363 25.1259 81.1852C24.5926 81.0074 23.8815 80.9482 23.0519 80.9482H20.1481V87.9407H23.1111C23.8815 87.9407 24.5333 87.8815 25.0667 87.7037C25.6 87.5259 26.0148 87.3481 26.3704 87.0518C26.6667 86.8148 26.9037 86.4593 27.0815 86.1037C27.2593 85.6889 27.3185 85.2148 27.3185 84.6222C27.3185 83.9111 27.2 83.3185 27.0222 82.9037ZM30.2222 87.1704C29.9259 88 29.3926 88.7111 28.7407 89.3037C28.0889 89.8963 27.3185 90.3704 26.4889 90.6667C25.6593 90.963 24.7111 91.0815 23.6444 91.0815H20.1481V96.8296V99.0222H14.163V95.9407H16.7111V81.0074H14.163V77.9259H23.3482C24.4148 77.9259 25.4222 78.0444 26.3111 78.3407C27.2 78.637 28.0296 79.0518 28.6815 79.6444C29.3926 80.237 29.8667 80.9481 30.163 81.7778C30.4593 82.6074 30.637 83.4963 30.637 84.5037C30.6963 85.4519 30.5778 86.3407 30.2222 87.1704Z" fill="white"/>
<path d="M68.8593 108.089C70.8148 108.089 72.237 109.333 72.237 111.348V113.067C72.237 115.437 70.7556 116.444 68.6815 116.444C67.6741 116.444 66.4889 116.207 65.6 115.911C65.4815 115.852 65.4222 115.793 65.4222 115.674V105.481C65.4222 105.304 65.4815 105.244 65.6593 105.244H66.963C67.1407 105.244 67.2 105.304 67.2 105.481V108.444C67.6741 108.207 68.2667 108.089 68.8593 108.089ZM70.4 113.067V111.348C70.4 110.163 69.7481 109.689 68.6815 109.689C68.0889 109.689 67.6148 109.867 67.2 110.104V114.667C67.5556 114.844 68.1481 114.904 68.6222 114.904C69.7481 114.844 70.4 114.37 70.4 113.067Z" fill="white"/>
<path d="M78.7556 108.504C78.7556 108.385 78.8148 108.267 78.9926 108.267H80.2963C80.4741 108.267 80.5333 108.326 80.5333 108.504V115.733C80.5333 118.104 79.4667 119.348 77.0963 119.348C75.7926 119.348 74.9037 119.052 74.0741 118.4C73.9556 118.281 73.9556 118.222 74.0148 118.104L74.6667 117.156C74.7259 117.037 74.8444 116.978 74.963 117.096C75.5556 117.511 76.2074 117.807 77.037 117.807C78.1037 117.807 78.7556 117.333 78.6963 115.793C78.2222 115.97 77.6296 116.089 77.037 116.089C75.437 116.089 73.7185 115.081 73.7185 112.948V108.563C73.7185 108.444 73.837 108.326 73.9556 108.326H75.3185C75.437 108.326 75.5556 108.385 75.5556 108.563V112.889C75.5556 114.074 76.3852 114.489 77.3333 114.489C77.8667 114.489 78.4 114.37 78.6963 114.193V108.504H78.7556Z" fill="white"/>
<path d="M86.0444 116.267C85.8667 116.267 85.8074 116.207 85.8074 116.03V108.978C85.8074 108.859 85.8667 108.741 85.9852 108.681C86.8741 108.326 87.9407 108.089 89.0667 108.089C91.2 108.089 92.6222 109.096 92.6222 111.526V116.03C92.6222 116.207 92.563 116.267 92.3852 116.267H91.0222C90.9037 116.267 90.7852 116.207 90.7852 116.03V111.585C90.7852 110.163 90.1333 109.689 89.0074 109.689C88.4741 109.689 87.9407 109.748 87.5852 109.867V116.03C87.5852 116.207 87.5259 116.267 87.3481 116.267H86.0444V116.267Z" fill="white"/>
<path d="M100.978 112.83C100.978 112.948 100.919 113.067 100.741 113.067H96.0593V113.481C96.0593 114.43 96.7111 114.904 97.7185 114.904C98.6667 114.904 99.3185 114.607 99.9111 114.193C100.03 114.133 100.148 114.133 100.207 114.252L100.859 115.081C100.978 115.2 100.919 115.319 100.8 115.378C99.9704 116.03 98.963 116.444 97.6593 116.444C95.9407 116.444 94.2815 115.496 94.2815 113.422V111.23C94.2815 108.978 96 108.089 97.6593 108.089C99.3185 108.089 100.978 108.978 100.978 111.23V112.83V112.83ZM97.6 109.689C96.7111 109.689 96 110.104 96 111.289V111.704H99.2V111.289C99.2 110.104 98.4889 109.689 97.6 109.689Z" fill="white"/>
<path d="M105.541 114.785C105.659 114.785 105.956 114.785 106.193 114.726C106.37 114.726 106.43 114.785 106.43 114.963V116.148C106.43 116.267 106.37 116.385 106.193 116.385C105.956 116.385 105.6 116.444 105.363 116.444C103.763 116.444 102.519 115.615 102.519 113.6V106.548C102.519 106.43 102.578 106.311 102.756 106.311H103.941C104.059 106.311 104.178 106.37 104.178 106.489L104.296 108.326H105.956C106.074 108.326 106.193 108.385 106.193 108.563V109.689C106.193 109.807 106.074 109.926 105.956 109.926H104.296V113.481C104.296 114.311 104.711 114.785 105.541 114.785Z" fill="white"/>
<path d="M110.459 116.444C109.393 116.444 108.326 116.148 107.319 115.437C107.2 115.378 107.2 115.259 107.259 115.141L107.852 114.133C107.911 114.015 108.03 113.956 108.148 114.074C108.859 114.607 109.689 114.844 110.459 114.844C111.289 114.844 111.881 114.548 111.881 113.956C111.881 113.363 111.17 113.185 110.459 113.067C109.274 112.83 107.319 112.356 107.319 110.519C107.319 108.8 108.919 108.089 110.578 108.089C111.467 108.089 112.356 108.326 113.244 108.8C113.363 108.859 113.422 108.978 113.304 109.096L112.711 110.104C112.652 110.222 112.533 110.222 112.415 110.163C111.822 109.867 111.17 109.63 110.459 109.63C109.57 109.63 109.037 109.985 109.037 110.459C109.037 111.111 109.748 111.23 110.756 111.467C112 111.704 113.6 112.119 113.6 113.896C113.719 115.615 112.296 116.444 110.459 116.444Z" fill="white"/>
</svg>
