<?xml version="1.0" encoding="utf-8"?>
<!-- Generator: Adobe Illustrator 25.4.1, SVG Export Plug-In . SVG Version: 6.00 Build 0)  -->
<svg version="1.1" id="Layer_1" xmlns="http://www.w3.org/2000/svg" xmlns:xlink="http://www.w3.org/1999/xlink" x="0px" y="0px"
	 viewBox="0 0 216 216" style="enable-background:new 0 0 216 216;" xml:space="preserve">
<style type="text/css">
	.st0{fill:#E42E87;}
	.st1{fill:#FFFFFF;}
	.st2{fill:none;stroke:#FFFFFF;stroke-width:6;}
</style>
<rect class="st0" width="216" height="216"/>
<path class="st1" d="M55.2,35.8c5,0,9-3.9,9-8.8c0-4.9-4-8.8-9-8.8s-9,3.9-9,8.8C46.2,31.9,50.2,35.8,55.2,35.8"/>
<path class="st1" d="M161.4,36c5,0,9-4,9-9c0-5-4-9-9-9c-5,0-9,4-9,9C152.4,32,156.5,36,161.4,36"/>
<path class="st2" d="M55,27.6c0,29.3,23.8,53.1,53.1,53.1c29.3,0,53.1-23.8,53.1-53.1"/>
<path class="st1" d="M182.8,167.1v-3.7v-26.7h-4.1v-5.2h9.7v30.4h4.1v5.2H182.8z M170.6,167.1l-0.1-2.2v-18.4h-4v-5.2h9.6v20.5h3.9
	v5.2H170.6z M175.1,136.9c-0.7,0.7-1.6,1-2.4,1s-1.7-0.3-2.4-1c-0.7-0.7-1-1.6-1-2.4c0-1,0.3-1.8,1-2.5c0.7-0.7,1.6-1,2.4-1
	s1.7,0.3,2.4,1c0.7,0.7,1,1.6,1,2.4C176.1,135.4,175.8,136.2,175.1,136.9 M158.3,156.9c-0.7-0.4-1.3-0.6-2-0.9
	c-0.9-0.3-1.8-0.5-2.8-0.5c-0.9,0-1.6,0.1-2.2,0.3c-0.6,0.2-1.1,0.5-1.4,0.8c-0.8,0.7-1.2,1.6-1.2,2.6c0,0.8,0.3,1.5,0.9,2.2
	c0.3,0.3,0.6,0.5,1.1,0.7c0.4,0.2,0.9,0.2,1.6,0.2c1.1,0,2.2-0.3,3.4-0.9c1-0.5,1.9-1.2,2.7-1.9V156.9z M158.3,167.1v-1.7
	c-1,0.6-2.1,1.1-3.2,1.5c-1.1,0.4-2.3,0.6-3.5,0.6c-2.5,0-4.5-0.8-6.1-2.4c-1.6-1.6-2.4-3.5-2.4-5.8c0-2.5,1-4.6,2.9-6.2
	c0.9-0.8,2-1.4,3.2-1.8c1.2-0.4,2.5-0.6,4-0.6c1.1,0,2.3,0.2,3.6,0.5c0.3,0.1,0.5,0.1,0.8,0.2c0.3,0.1,0.6,0.2,0.9,0.3v-3
	c0-0.6-0.1-1.1-0.3-1.5c-0.2-0.4-0.4-0.6-0.7-0.8c-0.4-0.3-0.9-0.5-1.4-0.6c-0.6-0.1-1.3-0.2-2.1-0.2c-0.4,0-0.9,0.1-1.4,0.2
	c-0.5,0.1-1.1,0.3-1.7,0.4c-0.6,0.2-1.1,0.4-1.6,0.5c-0.5,0.2-0.9,0.3-1.3,0.5l-1.7-4.3c1.1-0.4,2.1-0.8,2.9-1.1
	c0.8-0.3,1.6-0.5,2.5-0.7c0.9-0.2,1.7-0.3,2.4-0.3c1.5,0,2.8,0.2,4,0.5c1.2,0.3,2.3,0.8,3.2,1.4c1,0.7,1.7,1.6,2.1,2.6
	c0.4,1,0.7,2.2,0.7,3.5v13.2h3.8v5.2H158.3z M141.2,146.5c-1.5,0-2.8,0.2-3.8,0.5c-1,0.4-1.8,0.8-2.4,1.3c-0.6,0.5-1,1.1-1.3,1.8
	c-0.3,0.7-0.5,1.7-0.5,3.1v8.6h4.7v5.2h-10.2v-3.7v-16.8h-4.3v-5.2h9.9v2.7c0.1-0.1,0.4-0.2,0.9-0.6s0.9-0.6,1.3-0.8
	c1.1-0.5,2-0.9,2.9-1.1c0.9-0.2,1.9-0.3,3-0.2l2.4,0v5H141.2z M116.4,167.6c-0.9,0-1.7-0.1-2.4-0.4c-0.7-0.2-1.4-0.6-1.9-1.2
	c-0.5-0.5-0.9-1.2-1.1-1.9c-0.2-0.7-0.3-1.5-0.3-2.3v-15.3h-4v-5.2h4v-5l5.6-0.1v5.2h4.8v5.2h-4.8v14.8c0,0.5,0,0.8,0.1,1h0.2
	l4.4-0.7v5.3L116.4,167.6z M100,146.6l-11.6,30.7H83l4.4-12.3l-7.5-18.4h-4.3v-5.2h8l1.2,3.1l5.4,13.3l4.2-11.2h-2.9v-5.2H104v5.2
	H100z M67,156.9c-0.7-0.4-1.3-0.6-2-0.9c-0.9-0.3-1.8-0.5-2.8-0.5c-0.9,0-1.6,0.1-2.2,0.3c-0.6,0.2-1.1,0.5-1.4,0.8
	c-0.8,0.7-1.2,1.6-1.2,2.6c0,0.8,0.3,1.5,0.9,2.2c0.3,0.3,0.6,0.5,1.1,0.7c0.4,0.2,0.9,0.2,1.6,0.2c1.1,0,2.2-0.3,3.4-0.9
	c1-0.5,1.9-1.2,2.7-1.9V156.9z M67,167.1v-1.7c-1,0.6-2.1,1.1-3.2,1.5c-1.1,0.4-2.3,0.6-3.5,0.6c-2.5,0-4.5-0.8-6.1-2.4
	c-1.6-1.6-2.4-3.5-2.4-5.8c0-2.5,1-4.6,2.9-6.2c0.9-0.8,2-1.4,3.2-1.8c1.2-0.4,2.5-0.6,4-0.6c1.1,0,2.3,0.2,3.6,0.5
	c0.3,0.1,0.5,0.1,0.8,0.2c0.3,0.1,0.6,0.2,0.9,0.3v-3c0-0.6-0.1-1.1-0.3-1.5c-0.2-0.4-0.4-0.6-0.7-0.8c-0.4-0.3-0.9-0.5-1.4-0.6
	c-0.6-0.1-1.3-0.2-2.1-0.2c-0.4,0-0.9,0.1-1.4,0.2c-0.5,0.1-1.1,0.3-1.7,0.4c-0.6,0.2-1.1,0.4-1.6,0.5c-0.5,0.2-0.9,0.3-1.3,0.5
	l-1.7-4.3c1.1-0.4,2.1-0.8,2.9-1.1c0.8-0.3,1.6-0.5,2.5-0.7c0.9-0.2,1.7-0.3,2.4-0.3c1.5,0,2.8,0.2,4,0.5c1.2,0.3,2.3,0.8,3.2,1.4
	c1,0.7,1.7,1.6,2.1,2.6c0.4,1,0.7,2.2,0.7,3.5v13.2h3.8v5.2H67z M45.6,139.9c-0.3-0.8-0.7-1.3-1.1-1.8c-0.5-0.4-1.2-0.8-2.1-1.1
	s-2.1-0.4-3.5-0.4H34v11.8H39c1.3,0,2.4-0.1,3.3-0.4c0.9-0.3,1.6-0.6,2.2-1.1c0.5-0.4,0.9-1,1.2-1.6c0.3-0.7,0.4-1.5,0.4-2.5
	C46.1,141.6,45.9,140.6,45.6,139.9 M51,147.1c-0.5,1.4-1.4,2.6-2.5,3.6c-1.1,1-2.4,1.8-3.8,2.3c-1.4,0.5-3,0.7-4.8,0.7H34v9.7v3.7
	H23.9v-5.2h4.3v-25.2h-4.3v-5.2h15.5c1.8,0,3.5,0.2,5,0.7c1.5,0.5,2.9,1.2,4,2.2c1.2,1,2,2.2,2.5,3.6c0.5,1.4,0.8,2.9,0.8,4.6
	C51.8,144.2,51.6,145.7,51,147.1"/>
<g>
	<path class="st1" d="M116.2,182.4c3.3,0,5.7,2.1,5.7,5.5v2.9c0,4-2.5,5.7-6,5.7c-1.7,0-3.7-0.4-5.2-0.9c-0.2-0.1-0.3-0.2-0.3-0.4
		V178c0-0.3,0.1-0.4,0.4-0.4h2.2c0.3,0,0.4,0.1,0.4,0.4v5C114.2,182.6,115.2,182.4,116.2,182.4z M118.8,190.8v-2.9
		c0-2-1.1-2.8-2.9-2.8c-1,0-1.8,0.3-2.5,0.7v7.7c0.6,0.3,1.6,0.4,2.4,0.4C117.7,193.8,118.8,193,118.8,190.8z"/>
	<path class="st1" d="M132.9,183.1c0-0.2,0.1-0.4,0.4-0.4h2.2c0.3,0,0.4,0.1,0.4,0.4v12.2c0,4-1.8,6.1-5.8,6.1
		c-2.2,0-3.7-0.5-5.1-1.6c-0.2-0.2-0.2-0.3-0.1-0.5l1.1-1.6c0.1-0.2,0.3-0.3,0.5-0.1c1,0.7,2.1,1.2,3.5,1.2c1.8,0,2.9-0.8,2.8-3.4
		c-0.8,0.3-1.8,0.5-2.8,0.5c-2.7,0-5.6-1.7-5.6-5.3v-7.4c0-0.2,0.2-0.4,0.4-0.4h2.3c0.2,0,0.4,0.1,0.4,0.4v7.3c0,2,1.4,2.7,3,2.7
		c0.9,0,1.8-0.2,2.3-0.5V183.1z"/>
	<path class="st1" d="M145.2,196.2c-0.3,0-0.4-0.1-0.4-0.4v-11.9c0-0.2,0.1-0.4,0.3-0.5c1.5-0.6,3.3-1,5.2-1c3.6,0,6,1.7,6,5.8v7.6
		c0,0.3-0.1,0.4-0.4,0.4h-2.3c-0.2,0-0.4-0.1-0.4-0.4v-7.5c0-2.4-1.1-3.2-3-3.2c-0.9,0-1.8,0.1-2.4,0.3v10.4c0,0.3-0.1,0.4-0.4,0.4
		H145.2z"/>
	<path class="st1" d="M170.4,190.4c0,0.2-0.1,0.4-0.4,0.4h-7.9v0.7c0,1.6,1.1,2.4,2.8,2.4c1.6,0,2.7-0.5,3.7-1.2
		c0.2-0.1,0.4-0.1,0.5,0.1l1.1,1.4c0.2,0.2,0.1,0.4-0.1,0.5c-1.4,1.1-3.1,1.8-5.3,1.8c-2.9,0-5.7-1.6-5.7-5.1v-3.7
		c0-3.8,2.9-5.3,5.7-5.3c2.8,0,5.6,1.5,5.6,5.3V190.4z M164.7,185.1c-1.5,0-2.7,0.7-2.7,2.7v0.7h5.4v-0.7
		C167.4,185.8,166.2,185.1,164.7,185.1z"/>
	<path class="st1" d="M178.1,193.7c0.2,0,0.7,0,1.1-0.1c0.3,0,0.4,0.1,0.4,0.4v2c0,0.2-0.1,0.4-0.4,0.4c-0.4,0-1,0.1-1.4,0.1
		c-2.7,0-4.8-1.4-4.8-4.8v-11.9c0-0.2,0.1-0.4,0.4-0.4h2c0.2,0,0.4,0.1,0.4,0.3l0.2,3.1h2.8c0.2,0,0.4,0.1,0.4,0.4v1.9
		c0,0.2-0.2,0.4-0.4,0.4H176v6C176,192.9,176.7,193.7,178.1,193.7z"/>
	<path class="st1" d="M186.4,196.5c-1.8,0-3.6-0.5-5.3-1.7c-0.2-0.1-0.2-0.3-0.1-0.5l1-1.7c0.1-0.2,0.3-0.3,0.5-0.1
		c1.2,0.9,2.6,1.3,3.9,1.3c1.4,0,2.4-0.5,2.4-1.5c0-1-1.2-1.3-2.4-1.5c-2-0.4-5.3-1.2-5.3-4.3c0-2.9,2.7-4.1,5.5-4.1
		c1.5,0,3,0.4,4.5,1.2c0.2,0.1,0.3,0.3,0.1,0.5l-1,1.7c-0.1,0.2-0.3,0.2-0.5,0.1c-1-0.5-2.1-0.9-3.3-0.9c-1.5,0-2.4,0.6-2.4,1.4
		c0,1.1,1.2,1.3,2.9,1.7c2.1,0.4,4.8,1.1,4.8,4.1C191.9,195.1,189.5,196.5,186.4,196.5z"/>
</g>
</svg>
