<svg xmlns="http://www.w3.org/2000/svg" viewBox="0 0 247.4 178.6">
  <g fill="#2c2e83">
    <path d="M104.1 88.7H76.7c-24.4 0-44.3-19.9-44.3-44.3 0-11.8 4.6-22.9 13-31.3C53.8 4.6 64.9 0 76.7 0h12.5c5.5 0 10 4.5 10 10s-4.5 10-10 10H76.7c-6.5 0-12.6 2.5-17.2 7.2-4.6 4.6-7.1 10.7-7.1 17.1 0 13.4 10.9 24.3 24.3 24.3h27.4c6.5 0 12.5-2.5 17.1-7.1 4.6-4.6 7.2-10.7 7.2-17.2 0-5.5 4.5-10 10-10s10 4.5 10 10c0 11.8-4.6 22.9-13 31.3a43.88 43.88 0 0 1-31.3 13.1z"/>
    <path d="M169 88.7h-12.5c-5.5 0-10-4.5-10-10s4.5-10 10-10H169c6.5 0 12.6-2.5 17.2-7.2 4.6-4.6 7.1-10.7 7.1-17.1 0-13.4-10.9-24.3-24.3-24.3h-27.4c-6.5 0-12.5 2.5-17.1 7.1-4.6 4.6-7.2 10.7-7.2 17.2 0 5.5-4.5 10-10 10s-10-4.5-10-10c0-11.8 4.6-22.9 13-31.3 8.3-8.4 19.5-13 31.3-13H169c24.4 0 44.3 19.9 44.3 44.3 0 11.8-4.6 22.9-13 31.3a44.2 44.2 0 0 1-31.3 13zM30 132.5c-1.2 0-1.7-1.3-3.9-2.7-1.5-1-3.7-1.8-7.4-1.8-9.6 0-13.9 6.7-13.9 18.6v8.8c0 12.5 3.9 18.6 13.5 18.6 3.9 0 6.5-1.2 8.3-2.4 1.7-1.2 2.7-2.3 3.6-2.3 1.4 0 2.1 1 2.1 2.1 0 1-.9 2.2-2.4 3.3-2.7 2.1-6.9 3.8-11.7 3.8-13.5 0-18.4-9.3-18.4-23v-8.9c0-13.2 5.2-23 18.8-23 5 0 9.1 1.6 11.3 3.5 1.4 1.2 2.2 2.4 2.2 3.2.2 1.2-.6 2.2-2.1 2.2zm33 45.8c-1.3 0-2.4-1-2.4-2.4v-21.6c0-5.4-1.5-9-7.8-9-5 0-8.5 2.1-10.3 5.5V176c0 1.3-1.1 2.4-2.4 2.4-1.3 0-2.4-1-2.4-2.4v-49c0-1.3 1-2.4 2.4-2.4 1.3 0 2.4 1 2.4 2.4v18c2.4-2.6 6-4 11-4 9.4 0 11.9 5.8 11.9 13.2V176c0 1.3-1.1 2.3-2.4 2.3zM99 159c0 1.3-.9 2-1.9 2H75.7v2.2c0 6.5 2.8 10.9 9.5 10.9 3.5 0 5.6-.5 7.1-1.1 1.7-.7 2.6-1.4 3.7-1.4 1 0 1.8.8 1.8 2s-1.4 2.3-3.5 3.1c-2.4 1-5.8 1.6-9.3 1.6-10.2 0-13.9-7.1-13.9-15.4v-6.8c0-8.2 3.8-15.2 14-15.2 10.4 0 13.9 6.6 13.9 15.3v2.8zm-13.9-14.2c-6.7 0-9.4 4.3-9.4 10.8v1.4h18.7v-1.5c0-6.4-2.3-10.7-9.3-10.7zm39.6 1.8c-2-1.1-4.1-1.5-6.8-1.5-6.2 0-9.7 4.9-9.7 11.8v5.4c0 7.4 3.2 11.9 9.6 11.9 2.4 0 4.7-.4 7-1.7 1.3-.6 2.3-.1 2.8.9.5 1.1.1 2.3-.9 2.8-2.9 1.6-6 2.2-9.1 2.2-9.8 0-14.1-6.8-14.1-16.2v-5.1c0-8.8 4.6-16.2 14.1-16.2 3 0 6.3.5 9 2.1 1.1.6 1.4 1.8.7 2.9-.3.8-1.4 1.3-2.6.7zm31.6 31.7c-.7 0-1.5-.4-2-1.3-3.2-6.3-7.4-12.5-11.6-18.1l-5.7 5.8V176c0 1.3-1.1 2.4-2.4 2.4-1.3 0-2.4-1-2.4-2.4v-49c0-1.3 1-2.4 2.4-2.4 1.3 0 2.4 1 2.4 2.4v31.9l16.9-17.4c.9-.8 2.2-.8 3.1 0 .8.8.8 2.2-.1 3l-11 11.2c4.5 6 8.9 12.7 12.4 19.4 1.1 1.8-.4 3.2-2 3.2zm18.6 0c-10.2 0-14.3-6.8-14.3-15v-7.4c0-8.3 4-15 14.3-15 10.2 0 14.3 6.7 14.3 15v7.4c-.1 8.3-4.1 15-14.3 15zm9.6-22.4c0-6.4-2.8-10.6-9.6-10.6-6.9 0-9.6 4.2-9.6 10.6v7.4c0 6.4 2.7 10.6 9.6 10.6 6.8 0 9.6-4.2 9.6-10.6v-7.4zm38.6 22.4a5.93 5.93 0 0 1-5.3-4.5c-2.5 2.9-6.3 4.6-11.6 4.6-9.3 0-11.9-5.9-11.9-13.3v-21.9c0-1.4 1.1-2.4 2.4-2.4 1.3 0 2.4 1 2.4 2.4v21.6c0 5.6 1.5 9 7.9 9 5.3 0 8.6-2.3 10.3-5.8v-24.7c0-1.4 1-2.4 2.4-2.4 1.3 0 2.4 1 2.4 2.4v26.4c0 3.2.7 4.1 2.4 4.8.8.4 1.3 1 1.3 1.8-.4 1.3-1.5 2-2.7 2zm22.1-.4h-1.8c-10 0-12.1-6.1-12.1-15.4v-17h-2.6c-1.2 0-2.1-1-2.1-2.1 0-1.2 1-2.1 2.1-2.1h2.6v-8.9c0-1.3 1-2.4 2.4-2.4s2.4 1 2.4 2.4v8.9h7.4c1.2 0 2.1.9 2.1 2.1 0 1.2-1 2.1-2.1 2.1H236v17c0 8 1.3 11 7.7 11h1.5c1.3 0 2.2 1 2.2 2.2 0 1.2-.9 2.2-2.2 2.2z"/>
  </g>
</svg>